<?xml version="1.0" encoding="UTF-8"?>
<svg height="16px" viewBox="0 0 16 16" width="16px" xmlns="http://www.w3.org/2000/svg">
    <path d="m 5 2 h 6 c 1.65625 0 3 1.34375 3 3 s -1.34375 3 -3 3 h -6 c -1.65625 0 -3 -1.34375 -3 -3 s 1.34375 -3 3 -3 z m 0 0"/>
    <path d="m 1 4 c 0.550781 0 1 0.804688 1 1.800781 v 8.398438 c 0 0.996093 -0.449219 1.800781 -1 1.800781 s -1 -0.804688 -1 -1.800781 v -8.398438 c 0 -0.996093 0.449219 -1.800781 1 -1.800781 z m 0 0"/>
    <path d="m 15 4 v 2.265625 h -14 v -2.265625 z m 0 0"/>
    <path d="m 15 4 c 0.550781 0 1 0.804688 1 1.800781 v 8.398438 c 0 0.996093 -0.449219 1.800781 -1 1.800781 s -1 -0.804688 -1 -1.800781 v -8.398438 c 0 -0.996093 0.449219 -1.800781 1 -1.800781 z m 0 0"/>
</svg>
